<svg id="Layer_1" data-name="Layer 1" xmlns="http://www.w3.org/2000/svg" viewBox="0 0 512 512"><defs><style>.cls-1{fill:#dde5e8;}.cls-2{fill:#71c6c4;}.cls-3{fill:#cad8dd;}.cls-4{fill:#f4607f;fill-rule:evenodd;}</style></defs><title>calendar-heart-flat</title><path class="cls-1" d="M0,396.8a64,64,0,0,0,64,64H448a64,64,0,0,0,64-64V179.2H0Z"/><path class="cls-2" d="M512,179.2V102.4a64,64,0,0,0-64-64H64a64,64,0,0,0-64,64v76.8Z"/><path class="cls-1" d="M179.2,64a38.4,38.4,0,0,1-38.4,38.4h0A38.4,38.4,0,0,1,102.4,64V38.4A38.4,38.4,0,0,1,140.8,0h0a38.4,38.4,0,0,1,38.4,38.4Z"/><path class="cls-1" d="M409.6,64a38.4,38.4,0,0,1-38.4,38.4h0A38.4,38.4,0,0,1,332.8,64V38.4A38.4,38.4,0,0,1,371.2,0h0a38.4,38.4,0,0,1,38.4,38.4Z"/><path class="cls-3" d="M448,460.8H64a64,64,0,0,1-64-64v32A83.2,83.2,0,0,0,83.2,512H428.8A83.2,83.2,0,0,0,512,428.8v-32A64,64,0,0,1,448,460.8Z"/><path class="cls-4" d="M332.8,283.87a40,40,0,0,1-7,22.72c-.82,1.22-1.77,2.38-2.71,3.53l-.29.36c-9.48,10.68-19.22,21.11-28.46,32-6.74,8-13.14,17.67-21.81,23.68a29.5,29.5,0,0,1-16.31,5.06c-15.26,0-24.6-13.27-33.61-23.61s-18.28-20.81-27.48-31.14c-2.31-2.6-4.61-5.21-6.91-7.82a6.31,6.31,0,0,1-.59-.76l-1.18-1.63a39.39,39.39,0,0,1-6.84-22.36c0-22.48,18.44-40.67,41.24-40.67A41.23,41.23,0,0,1,256.2,263a41.22,41.22,0,0,1,35.36-19.76C314.36,243.2,332.8,261.39,332.8,283.87Z"/></svg>