<svg id="Layer_1" data-name="Layer 1" xmlns="http://www.w3.org/2000/svg" viewBox="0 0 512 512"><defs><style>.cls-1{fill:#ffd38d;}.cls-2{fill:#6d4135;}.cls-3{opacity:0.1;}</style></defs><title>eye-flat</title><path class="cls-1" d="M509.76,265.39C460.91,364.91,363.63,426.67,256,426.67S51.09,364.91,2.24,265.39a20.79,20.79,0,0,1,0-18.77C51.09,147.09,148.37,85.33,256,85.33s204.91,61.76,253.76,161.28A20.79,20.79,0,0,1,509.76,265.39Z"/><path class="cls-2" d="M256,362.67A106.67,106.67,0,1,1,362.67,256,106.79,106.79,0,0,1,256,362.67ZM256,192a64,64,0,1,0,64,64A64.07,64.07,0,0,0,256,192Z"/><g class="cls-3"><path d="M509.76,265.39C460.91,364.91,363.63,426.67,256,426.67V85.33c107.63,0,204.91,61.76,253.76,161.28A20.79,20.79,0,0,1,509.76,265.39Z"/></g></svg>